<svg xmlns="http://www.w3.org/2000/svg" xmlns:xlink="http://www.w3.org/1999/xlink" width="224" zoomAndPan="magnify" viewBox="0 0 168 48" height="64" preserveAspectRatio="xMidYMid meet" version="1.0"><defs><g/><clipPath id="729d7ced30"><path d="M 1.714844 0 L 166.285156 0 L 166.285156 47.019531 L 1.714844 47.019531 Z M 1.714844 0 " clip-rule="nonzero"/></clipPath><clipPath id="faf489620c"><path d="M 1.714844 5 L 151 5 L 151 41 L 1.714844 41 Z M 1.714844 5 " clip-rule="nonzero"/></clipPath><clipPath id="2a51b399fb"><path d="M 1 0.691406 L 39.738281 0.691406 L 39.738281 35.578125 L 1 35.578125 Z M 1 0.691406 " clip-rule="nonzero"/></clipPath><clipPath id="1d5379e0e6"><path d="M 31 23 L 39.738281 23 L 39.738281 32 L 31 32 Z M 31 23 " clip-rule="nonzero"/></clipPath><clipPath id="24bd0e7c46"><rect x="0" width="150" y="0" height="36"/></clipPath></defs><g clip-path="url(#729d7ced30)"><path fill="#ffffff" d="M 1.714844 0 L 166.285156 0 L 166.285156 47.019531 L 1.714844 47.019531 Z M 1.714844 0 " fill-opacity="1" fill-rule="nonzero"/></g><g clip-path="url(#faf489620c)"><g transform="matrix(1, 0, 0, 1, 1, 5)"><g clip-path="url(#24bd0e7c46)"><g clip-path="url(#2a51b399fb)"><path fill="#ff7f50" d="M 4.800781 35.71875 C 4.332031 35.71875 3.847656 35.628906 3.394531 35.433594 C 1.558594 34.65625 0.714844 32.535156 1.488281 30.714844 L 11.207031 7.839844 C 11.367188 7.480469 11.566406 7.140625 11.835938 6.851562 L 11.925781 6.742188 C 12.738281 5.824219 13.960938 5.394531 15.167969 5.589844 C 16.371094 5.789062 17.398438 6.582031 17.902344 7.699219 L 22.652344 18.496094 L 32.371094 2.53125 C 32.949219 1.578125 33.9375 0.949219 35.054688 0.820312 C 36.167969 0.695312 37.269531 1.109375 38.042969 1.902344 L 38.277344 2.152344 C 38.90625 2.820312 39.265625 3.683594 39.285156 4.601562 L 39.464844 17.613281 C 39.5 19.59375 37.898438 21.230469 35.917969 21.269531 C 33.9375 21.304688 32.300781 19.703125 32.265625 17.722656 L 32.246094 16.550781 L 25.226562 28.089844 C 24.523438 29.242188 23.246094 29.886719 21.914062 29.796875 C 20.582031 29.707031 19.394531 28.878906 18.855469 27.65625 L 14.644531 18.117188 L 8.09375 33.523438 C 7.515625 34.890625 6.1875 35.71875 4.800781 35.71875 Z M 4.800781 35.71875 " fill-opacity="1" fill-rule="nonzero"/></g><g clip-path="url(#1d5379e0e6)"><path fill="#ff7f50" d="M 39.535156 27.511719 C 39.535156 28.015625 39.441406 28.496094 39.246094 28.960938 C 39.054688 29.421875 38.78125 29.832031 38.429688 30.183594 C 38.074219 30.539062 37.664062 30.8125 37.203125 31.003906 C 36.738281 31.195312 36.257812 31.292969 35.753906 31.292969 C 35.253906 31.292969 34.773438 31.195312 34.308594 31.003906 C 33.847656 30.8125 33.4375 30.539062 33.082031 30.183594 C 32.730469 29.832031 32.457031 29.421875 32.265625 28.960938 C 32.070312 28.496094 31.976562 28.015625 31.976562 27.511719 C 31.976562 27.011719 32.070312 26.53125 32.265625 26.066406 C 32.457031 25.601562 32.730469 25.195312 33.082031 24.839844 C 33.4375 24.484375 33.847656 24.210938 34.308594 24.019531 C 34.773438 23.828125 35.253906 23.734375 35.753906 23.734375 C 36.257812 23.734375 36.738281 23.828125 37.203125 24.019531 C 37.664062 24.210938 38.074219 24.484375 38.429688 24.839844 C 38.78125 25.195312 39.054688 25.601562 39.246094 26.066406 C 39.441406 26.53125 39.535156 27.011719 39.535156 27.511719 Z M 39.535156 27.511719 " fill-opacity="1" fill-rule="nonzero"/></g><g fill="#ffffff" fill-opacity="1"><g transform="translate(50.060138, 23.826945)"><g><path d="M 18.1875 -16.34375 L 18.609375 0.796875 L 14.703125 -0.140625 L 14.953125 -10.96875 L 10 0.25 L 7.53125 -0.375 L 3.453125 -11.59375 L 3.671875 -0.34375 L 1.171875 0.4375 L 1.5 -16.8125 L 5.46875 -16.4375 L 9.796875 -4.953125 L 14.75 -16.71875 Z M 18.1875 -16.34375 "/></g></g></g><g fill="#ffffff" fill-opacity="1"><g transform="translate(69.826744, 23.826945)"><g><path d="M 11.6875 -7.390625 L 12.171875 0.46875 L 8.390625 -0.140625 L 8.390625 -0.75 C 8.066406 -0.476562 7.648438 -0.257812 7.140625 -0.09375 C 6.628906 0.0703125 6.101562 0.15625 5.5625 0.15625 C 4.800781 0.15625 4.066406 0.00390625 3.359375 -0.296875 C 2.648438 -0.609375 2.066406 -1.066406 1.609375 -1.671875 C 1.160156 -2.273438 0.9375 -3.019531 0.9375 -3.90625 C 0.9375 -4.820312 1.179688 -5.578125 1.671875 -6.171875 C 2.160156 -6.773438 2.769531 -7.222656 3.5 -7.515625 C 4.238281 -7.816406 4.96875 -7.96875 5.6875 -7.96875 C 6.195312 -7.96875 6.691406 -7.882812 7.171875 -7.71875 C 7.660156 -7.5625 8.078125 -7.34375 8.421875 -7.0625 C 8.273438 -7.882812 7.90625 -8.53125 7.3125 -9 C 6.71875 -9.46875 6.054688 -9.6875 5.328125 -9.65625 C 4.515625 -9.65625 3.78125 -9.34375 3.125 -8.71875 L 1.78125 -9.90625 C 2.320312 -10.550781 3.023438 -11.039062 3.890625 -11.375 C 4.753906 -11.71875 5.613281 -11.882812 6.46875 -11.875 C 7.457031 -11.875 8.332031 -11.691406 9.09375 -11.328125 C 9.851562 -10.972656 10.460938 -10.457031 10.921875 -9.78125 C 11.390625 -9.113281 11.644531 -8.316406 11.6875 -7.390625 Z M 6.40625 -1.78125 C 6.945312 -1.78125 7.425781 -1.957031 7.84375 -2.3125 C 8.257812 -2.675781 8.46875 -3.128906 8.46875 -3.671875 C 8.46875 -4.210938 8.257812 -4.660156 7.84375 -5.015625 C 7.425781 -5.367188 6.945312 -5.546875 6.40625 -5.546875 C 5.84375 -5.546875 5.351562 -5.367188 4.9375 -5.015625 C 4.53125 -4.660156 4.328125 -4.210938 4.328125 -3.671875 C 4.328125 -3.128906 4.535156 -2.675781 4.953125 -2.3125 C 5.378906 -1.957031 5.863281 -1.78125 6.40625 -1.78125 Z M 6.40625 -1.78125 "/></g></g></g><g fill="#ffffff" fill-opacity="1"><g transform="translate(83.168031, 23.826945)"><g><path d="M 8.515625 0.15625 C 6.773438 0.15625 5.375 -0.328125 4.3125 -1.296875 C 3.257812 -2.273438 2.703125 -3.628906 2.640625 -5.359375 L 2.53125 -9.15625 L 1.21875 -9.203125 L 0.9375 -11.390625 L 2.453125 -11.484375 L 2.34375 -14.546875 L 6.21875 -15.140625 L 6.09375 -11.734375 L 10.75 -12.0625 L 9.484375 -8.875 L 6 -9.015625 L 5.890625 -5.140625 C 5.867188 -4.484375 5.976562 -3.957031 6.21875 -3.5625 C 6.46875 -3.164062 6.789062 -2.878906 7.1875 -2.703125 C 7.582031 -2.523438 8 -2.453125 8.4375 -2.484375 C 8.875 -2.515625 9.265625 -2.644531 9.609375 -2.875 L 11.125 -0.4375 C 10.6875 -0.238281 10.238281 -0.09375 9.78125 0 C 9.320312 0.101562 8.898438 0.15625 8.515625 0.15625 Z M 8.515625 0.15625 "/></g></g></g><g fill="#fff3ec" fill-opacity="1"><g transform="translate(95.228229, 23.826945)"><g><path d="M 6.265625 0.4375 C 5.285156 0.4375 4.425781 0.242188 3.6875 -0.140625 C 2.957031 -0.523438 2.363281 -1.035156 1.90625 -1.671875 C 1.445312 -2.304688 1.125 -2.972656 0.9375 -3.671875 L 2.40625 -5.5 C 2.550781 -5.164062 2.773438 -4.820312 3.078125 -4.46875 C 3.378906 -4.125 3.75 -3.832031 4.1875 -3.59375 C 4.625 -3.363281 5.097656 -3.25 5.609375 -3.25 C 6.296875 -3.25 6.832031 -3.445312 7.21875 -3.84375 C 7.613281 -4.238281 7.8125 -4.726562 7.8125 -5.3125 C 7.8125 -6.082031 7.488281 -6.742188 6.84375 -7.296875 C 6.207031 -7.859375 5.21875 -8.113281 3.875 -8.0625 L 3.3125 -10.828125 L 5.125 -11.03125 C 5.882812 -11.125 6.4375 -11.328125 6.78125 -11.640625 C 7.132812 -11.953125 7.3125 -12.363281 7.3125 -12.875 C 7.3125 -13.46875 7.113281 -13.9375 6.71875 -14.28125 C 6.320312 -14.632812 5.875 -14.8125 5.375 -14.8125 C 4.9375 -14.8125 4.535156 -14.707031 4.171875 -14.5 C 3.816406 -14.289062 3.539062 -14.007812 3.34375 -13.65625 L 1.734375 -14.71875 C 2.171875 -15.3125 2.722656 -15.785156 3.390625 -16.140625 C 4.054688 -16.503906 4.789062 -16.6875 5.59375 -16.6875 C 6.457031 -16.6875 7.242188 -16.488281 7.953125 -16.09375 C 8.660156 -15.707031 9.226562 -15.171875 9.65625 -14.484375 C 10.09375 -13.804688 10.316406 -13.03125 10.328125 -12.15625 C 10.359375 -11.375 10.25 -10.703125 10 -10.140625 C 9.75 -9.578125 9.421875 -9.085938 9.015625 -8.671875 C 9.765625 -8.234375 10.363281 -7.648438 10.8125 -6.921875 C 11.269531 -6.191406 11.5 -5.390625 11.5 -4.515625 C 11.5 -3.003906 11.039062 -1.800781 10.125 -0.90625 C 9.21875 -0.0078125 7.929688 0.4375 6.265625 0.4375 Z M 6.265625 0.4375 "/></g></g></g><g fill="#ffffff" fill-opacity="1"><g transform="translate(107.663544, 23.826945)"><g><path d="M 11.6875 -7.390625 L 12.171875 0.46875 L 8.390625 -0.140625 L 8.390625 -0.75 C 8.066406 -0.476562 7.648438 -0.257812 7.140625 -0.09375 C 6.628906 0.0703125 6.101562 0.15625 5.5625 0.15625 C 4.800781 0.15625 4.066406 0.00390625 3.359375 -0.296875 C 2.648438 -0.609375 2.066406 -1.066406 1.609375 -1.671875 C 1.160156 -2.273438 0.9375 -3.019531 0.9375 -3.90625 C 0.9375 -4.820312 1.179688 -5.578125 1.671875 -6.171875 C 2.160156 -6.773438 2.769531 -7.222656 3.5 -7.515625 C 4.238281 -7.816406 4.96875 -7.96875 5.6875 -7.96875 C 6.195312 -7.96875 6.691406 -7.882812 7.171875 -7.71875 C 7.660156 -7.5625 8.078125 -7.34375 8.421875 -7.0625 C 8.273438 -7.882812 7.90625 -8.53125 7.3125 -9 C 6.71875 -9.46875 6.054688 -9.6875 5.328125 -9.65625 C 4.515625 -9.65625 3.78125 -9.34375 3.125 -8.71875 L 1.78125 -9.90625 C 2.320312 -10.550781 3.023438 -11.039062 3.890625 -11.375 C 4.753906 -11.71875 5.613281 -11.882812 6.46875 -11.875 C 7.457031 -11.875 8.332031 -11.691406 9.09375 -11.328125 C 9.851562 -10.972656 10.460938 -10.457031 10.921875 -9.78125 C 11.390625 -9.113281 11.644531 -8.316406 11.6875 -7.390625 Z M 6.40625 -1.78125 C 6.945312 -1.78125 7.425781 -1.957031 7.84375 -2.3125 C 8.257812 -2.675781 8.46875 -3.128906 8.46875 -3.671875 C 8.46875 -4.210938 8.257812 -4.660156 7.84375 -5.015625 C 7.425781 -5.367188 6.945312 -5.546875 6.40625 -5.546875 C 5.84375 -5.546875 5.351562 -5.367188 4.9375 -5.015625 C 4.53125 -4.660156 4.328125 -4.210938 4.328125 -3.671875 C 4.328125 -3.128906 4.535156 -2.675781 4.953125 -2.3125 C 5.378906 -1.957031 5.863281 -1.78125 6.40625 -1.78125 Z M 6.40625 -1.78125 "/></g></g></g><g fill="#ffffff" fill-opacity="1"><g transform="translate(121.00483, 23.826945)"><g><path d="M 19.78125 -7.546875 L 20.359375 0.796875 L 16.53125 0.375 L 16.640625 -6.609375 C 16.660156 -7.359375 16.570312 -7.941406 16.375 -8.359375 C 16.175781 -8.785156 15.925781 -9.078125 15.625 -9.234375 C 15.332031 -9.398438 15.015625 -9.484375 14.671875 -9.484375 C 13.867188 -9.484375 13.226562 -9.195312 12.75 -8.625 C 12.269531 -8.0625 12.054688 -7.390625 12.109375 -6.609375 L 12.4375 -0.109375 L 8.609375 0.34375 L 8.921875 -6.125 C 8.941406 -6.5625 8.910156 -7 8.828125 -7.4375 C 8.742188 -7.882812 8.5625 -8.257812 8.28125 -8.5625 C 8.007812 -8.863281 7.59375 -9.015625 7.03125 -9.015625 C 6.582031 -9.015625 6.175781 -8.894531 5.8125 -8.65625 C 5.445312 -8.414062 5.15625 -8.097656 4.9375 -7.703125 C 4.726562 -7.316406 4.632812 -6.890625 4.65625 -6.421875 L 4.8125 -0.390625 L 1.1875 0.703125 L 1.171875 -12.265625 L 4.484375 -11.828125 L 4.5625 -10 C 4.9375 -10.46875 5.390625 -10.84375 5.921875 -11.125 C 6.460938 -11.40625 7.046875 -11.546875 7.671875 -11.546875 C 8.492188 -11.546875 9.222656 -11.367188 9.859375 -11.015625 C 10.503906 -10.671875 11.019531 -10.144531 11.40625 -9.4375 C 11.757812 -10.21875 12.273438 -10.84375 12.953125 -11.3125 C 13.640625 -11.789062 14.410156 -12.03125 15.265625 -12.03125 C 16.484375 -12.03125 17.507812 -11.648438 18.34375 -10.890625 C 19.1875 -10.140625 19.664062 -9.023438 19.78125 -7.546875 Z M 19.78125 -7.546875 "/></g></g></g><g fill="#ffffff" fill-opacity="1"><g transform="translate(142.40697, 23.826945)"><g><path d="M 3.109375 -13.09375 C 2.609375 -13.09375 2.175781 -13.269531 1.8125 -13.625 C 1.457031 -13.988281 1.28125 -14.414062 1.28125 -14.90625 C 1.28125 -15.425781 1.457031 -15.863281 1.8125 -16.21875 C 2.175781 -16.582031 2.609375 -16.765625 3.109375 -16.765625 C 3.617188 -16.765625 4.050781 -16.582031 4.40625 -16.21875 C 4.769531 -15.863281 4.953125 -15.425781 4.953125 -14.90625 C 4.953125 -14.414062 4.769531 -13.988281 4.40625 -13.625 C 4.050781 -13.269531 3.617188 -13.09375 3.109375 -13.09375 Z M 5.046875 -0.328125 L 1.171875 0.65625 L 1.5 -11.6875 L 4.703125 -12.125 Z M 5.046875 -0.328125 "/></g></g></g></g></g></g></svg>