<?xml version="1.0" encoding="UTF-8"?>
<svg xmlns="http://www.w3.org/2000/svg" version="1.1" xmlns:xlink="http://www.w3.org/1999/xlink" viewBox="0 0 100 35">
  <defs>
    <style>
      .cls-1 {
        fill: #fff;
      }

      .cls-2 {
        fill: none;
      }

      .cls-3 {
        clip-path: url(#clippath-1);
      }

      .cls-4 {
        fill: #fff3ec;
      }

      .cls-5 {
        clip-path: url(#clippath-3);
      }

      .cls-6 {
        clip-path: url(#clippath-2);
      }

      .cls-7 {
        clip-path: url(#clippath);
      }
    </style>
    <clipPath id="clippath">
      <rect class="cls-2" y="5.4" width="100" height="24.1"/>
    </clipPath>
    <clipPath id="clippath-1">
      <rect class="cls-2" x="-.5" y="5.4" width="100.5" height="24.1"/>
    </clipPath>
    <clipPath id="clippath-2">
      <rect class="cls-2" x=".2" y="5.9" width="25.9" height="23.4"/>
    </clipPath>
    <clipPath id="clippath-3">
      <rect class="cls-2" x="20.3" y="20.8" width="5.9" height="6"/>
    </clipPath>
  </defs>
  <!-- Generator: Adobe Illustrator 28.6.0, SVG Export Plug-In . SVG Version: 1.2.0 Build 709)  -->
  <g>
    <g id="katman_1">
      <g class="cls-7">
        <g class="cls-3">
          <g>
            <g class="cls-6">
              <path class="cls-1" d="M2.7,29.4c-.3,0-.6,0-.9-.2C.6,28.7,0,27.2.5,26l6.5-15.3c.1-.2.2-.5.4-.7h0c.5-.7,1.4-1,2.2-.8.8.1,1.5.7,1.8,1.4l3.2,7.2,6.5-10.7c.4-.6,1-1.1,1.8-1.1.7,0,1.5.2,2,.7l.2.2c.4.4.7,1,.7,1.6v8.7c.1,1.3-.9,2.4-2.3,2.4-1.3,0-2.4-1-2.4-2.4v-.8s-4.7,7.7-4.7,7.7c-.5.8-1.3,1.2-2.2,1.1s-1.7-.6-2-1.4l-2.8-6.4-4.4,10.3c-.4.9-1.3,1.5-2.2,1.5Z"/>
            </g>
            <g class="cls-5">
              <path class="cls-1" d="M26,23.9c0,.3,0,.7-.2,1-.1.3-.3.6-.5.8s-.5.4-.8.5c-.3.1-.6.2-1,.2s-.7,0-1-.2c-.3-.1-.6-.3-.8-.5s-.4-.5-.5-.8c-.1-.3-.2-.6-.2-1s0-.7.2-1c.1-.3.3-.6.5-.8.2-.2.5-.4.8-.5.3-.1.6-.2,1-.2s.7,0,1,.2c.3.1.6.3.8.5.2.2.4.5.5.8.1.3.2.6.2,1Z"/>
            </g>
            <path class="cls-1" d="M45.2,10.5l.3,11.5-2.6-.6.2-7.3-3.3,7.5-1.7-.4-2.7-7.5v7.5c.1,0-1.5.5-1.5.5l.2-11.6,2.7.3,2.9,7.7,3.3-7.9,2.3.3Z"/>
            <path class="cls-1" d="M54.1,16.5l.3,5.3-2.5-.4v-.4c-.2.2-.5.3-.8.4-.3.1-.7.2-1.1.2s-1-.1-1.5-.3c-.5-.2-.9-.5-1.2-.9-.3-.4-.5-.9-.5-1.5s.2-1.1.5-1.5c.3-.4.7-.7,1.2-.9.5-.2,1-.3,1.5-.3s.7,0,1,.2c.3.1.6.3.8.4,0-.5-.3-1-.7-1.3s-.8-.5-1.3-.4c-.5,0-1,.2-1.5.6l-.9-.8c.4-.4.8-.8,1.4-1,.6-.2,1.2-.3,1.7-.3.7,0,1.2.1,1.8.4.5.2.9.6,1.2,1,.3.4.5,1,.5,1.6ZM50.6,20.2c.4,0,.7-.1,1-.4.3-.2.4-.5.4-.9s-.1-.7-.4-.9c-.3-.2-.6-.4-1-.4s-.7.1-1,.4c-.3.2-.4.5-.4.9s.1.7.4.9c.3.2.6.4,1,.4Z"/>
            <path class="cls-1" d="M60.9,21.5c-1.2,0-2.1-.3-2.8-1-.7-.7-1.1-1.6-1.1-2.7v-2.5c0,0-1,0-1,0l-.2-1.5h1c0,0,0-2.1,0-2.1l2.6-.4v2.3c0,0,3-.2,3-.2l-.8,2.1h-2.3c0,0,0,2.5,0,2.5,0,.4,0,.8.2,1.1.2.3.4.5.6.6.3.1.5.2.8.1s.6-.1.8-.3l1,1.6c-.3.1-.6.2-.9.3-.3,0-.6.1-.8.1Z"/>
            <path class="cls-4" d="M67.5,21.7c-.7,0-1.2-.1-1.7-.4-.5-.3-.9-.6-1.2-1-.3-.4-.5-.9-.6-1.3l1-1.2c0,.2.2.5.5.7.2.2.5.4.7.6.3.2.6.2,1,.2s.8-.1,1.1-.4c.3-.3.4-.6.4-1s-.2-1-.6-1.3c-.4-.4-1.1-.5-2-.5l-.4-1.9h1.2c.5-.2.9-.3,1.1-.5.2-.2.4-.5.4-.8s-.1-.7-.4-.9c-.3-.2-.6-.4-.9-.4s-.6,0-.8.2c-.2.1-.4.3-.6.6l-1.1-.7c.3-.4.7-.7,1.1-1,.4-.2.9-.4,1.5-.4s1.1.1,1.6.4c.5.3.9.6,1.1,1.1.3.5.4,1,.5,1.6,0,.5,0,1-.2,1.4s-.4.7-.7,1c.5.3.9.7,1.2,1.2.3.5.5,1,.5,1.6,0,1-.3,1.8-.9,2.4-.6.6-1.5.9-2.6.9Z"/>
            <path class="cls-1" d="M79.5,16.5l.3,5.3-2.5-.4v-.4c-.2.2-.5.3-.8.4-.3.1-.7.2-1.1.2s-1-.1-1.5-.3c-.5-.2-.9-.5-1.2-.9-.3-.4-.5-.9-.5-1.5s.2-1.1.5-1.5c.3-.4.7-.7,1.2-.9.5-.2,1-.3,1.5-.3s.7,0,1,.2c.3.1.6.3.8.4,0-.5-.3-1-.7-1.3s-.8-.5-1.3-.4c-.5,0-1,.2-1.5.6l-.9-.8c.4-.4.8-.8,1.4-1,.6-.2,1.2-.3,1.7-.3.7,0,1.2.1,1.8.4.5.2.9.6,1.2,1,.3.4.5,1,.5,1.6ZM75.9,20.2c.4,0,.7-.1,1-.4.3-.2.4-.5.4-.9s-.1-.7-.4-.9c-.3-.2-.6-.4-1-.4s-.7.1-1,.4c-.3.2-.4.5-.4.9s.1.7.4.9c.3.2.6.4,1,.4Z"/>
            <path class="cls-1" d="M93.8,16.3l.4,5.6-2.6-.3v-4.7c0-.5,0-.9-.1-1.2-.1-.3-.3-.5-.5-.6-.2-.1-.4-.2-.6-.2-.5,0-1,.2-1.3.6-.3.4-.5.8-.4,1.4l.2,4.4-2.6.3.2-4.3c0-.3,0-.6,0-.9,0-.3-.2-.5-.4-.8-.2-.2-.5-.3-.8-.3s-.6,0-.8.2c-.2.2-.4.4-.6.6-.1.3-.2.5-.2.9v4c.1,0-2.3.7-2.3.7v-8.7s2.2.3,2.2.3v1.2c.3-.3.6-.6,1-.8.4-.2.8-.3,1.2-.3s1,.1,1.5.4c.4.2.8.6,1,1.1.2-.5.6-.9,1-1.3.5-.3,1-.5,1.5-.5.8,0,1.5.3,2.1.8.6.5.9,1.3,1,2.2Z"/>
            <path class="cls-1" d="M97,12.6c-.3,0-.6-.1-.9-.4-.2-.2-.4-.5-.4-.9s.1-.6.4-.9c.2-.2.5-.4.9-.4s.6.1.9.4c.2.2.4.5.4.9s-.1.6-.4.9c-.2.2-.5.4-.9.4ZM98.3,21.2l-2.6.7.2-8.3,2.1-.3.2,7.9Z"/>
          </g>
        </g>
      </g>
    </g>
  </g>
</svg>