<?xml version="1.0" encoding="UTF-8"?>
<svg xmlns="http://www.w3.org/2000/svg" version="1.1" xmlns:xlink="http://www.w3.org/1999/xlink" viewBox="0 0 100 35">
  <defs>
    <style>
      .cls-1 {
        fill: #fff;
      }

      .cls-2 {
        fill: none;
      }

      .cls-3 {
        clip-path: url(#clippath-1);
      }

      .cls-4 {
        fill: coral;
      }

      .cls-5 {
        fill: #fff3ec;
      }

      .cls-6 {
        clip-path: url(#clippath-3);
      }

      .cls-7 {
        clip-path: url(#clippath-2);
      }

      .cls-8 {
        clip-path: url(#clippath);
      }
    </style>
    <clipPath id="clippath">
      <rect class="cls-2" x="3.4" y="6.3" width="93.3" height="22.5"/>
    </clipPath>
    <clipPath id="clippath-1">
      <rect class="cls-2" x="2.9" y="6.3" width="93.7" height="22.5"/>
    </clipPath>
    <clipPath id="clippath-2">
      <rect class="cls-2" x="3.5" y="6.7" width="24.2" height="21.8"/>
    </clipPath>
    <clipPath id="clippath-3">
      <rect class="cls-2" x="22.3" y="20.6" width="5.5" height="5.6"/>
    </clipPath>
  </defs>
  <!-- Generator: Adobe Illustrator 28.6.0, SVG Export Plug-In . SVG Version: 1.2.0 Build 709)  -->
  <g>
    <g id="katman_1">
      <g class="cls-8">
        <g class="cls-3">
          <g>
            <g class="cls-7">
              <path class="cls-4" d="M5.9,28.6c-.3,0-.6,0-.9-.2-1.1-.5-1.7-1.8-1.2-2.9l6.1-14.3c.1-.2.2-.4.4-.6h0c.5-.6,1.3-.9,2-.8.8.1,1.4.6,1.7,1.3l3,6.7,6.1-10c.4-.6,1-1,1.7-1.1.7,0,1.4.2,1.9.7v.2c.5.4.8,1,.8,1.5v8.1c.1,1.2-.9,2.3-2.1,2.3-1.2,0-2.3-1-2.3-2.2v-.7s-4.4,7.2-4.4,7.2c-.4.7-1.2,1.1-2.1,1.1s-1.6-.6-1.9-1.3l-2.6-6-4.1,9.6c-.4.9-1.2,1.4-2.1,1.4Z"/>
            </g>
            <g class="cls-6">
              <path class="cls-4" d="M27.6,23.4c0,.3,0,.6-.2.9-.1.3-.3.5-.5.8s-.5.4-.8.5c-.3.1-.6.2-.9.2s-.6,0-.9-.2c-.3-.1-.5-.3-.8-.5s-.4-.5-.5-.8c-.1-.3-.2-.6-.2-.9s0-.6.2-.9c.1-.3.3-.5.5-.8.2-.2.5-.4.8-.5.3-.1.6-.2.9-.2s.6,0,.9.2c.3.1.5.3.8.5.2.2.4.5.5.8.1.3.2.6.2.9Z"/>
            </g>
            <path class="cls-1" d="M45.6,10.9l.3,10.7-2.4-.6.2-6.8-3.1,7-1.5-.4-2.5-7v7c.1,0-1.4.5-1.4.5l.2-10.8,2.5.2,2.7,7.2,3.1-7.3,2.1.2Z"/>
            <path class="cls-1" d="M53.8,16.5l.3,4.9-2.4-.4v-.4c-.2.2-.5.3-.8.4-.3.1-.6.2-1,.2s-.9,0-1.4-.3c-.4-.2-.8-.5-1.1-.9-.3-.4-.4-.8-.4-1.4s.2-1,.5-1.4c.3-.4.7-.7,1.1-.8.5-.2.9-.3,1.4-.3s.6,0,.9.2c.3,0,.6.2.8.4,0-.5-.3-.9-.7-1.2s-.8-.4-1.2-.4c-.5,0-1,.2-1.4.6l-.8-.7c.3-.4.8-.7,1.3-.9.5-.2,1.1-.3,1.6-.3.6,0,1.2.1,1.6.3.5.2.9.5,1.1,1,.3.4.5.9.5,1.5ZM50.5,20c.3,0,.6-.1.9-.3.3-.2.4-.5.4-.8s-.1-.6-.4-.8c-.3-.2-.6-.3-.9-.3s-.7.1-.9.3c-.3.2-.4.5-.4.8s.1.6.4.8c.3.2.6.3.9.3Z"/>
            <path class="cls-1" d="M60.2,21.2c-1.1,0-2-.3-2.6-.9-.7-.6-1-1.5-1-2.5v-2.4c0,0-.9,0-.9,0l-.2-1.4h.9c0,0,0-2,0-2l2.4-.4v2.1c0,0,2.8-.2,2.8-.2l-.8,2h-2.2c0,0,0,2.3,0,2.3,0,.4,0,.7.2,1,.2.2.4.4.6.5.2.1.5.2.8.1s.5-.1.7-.2l.9,1.5c-.3.1-.6.2-.8.3-.3,0-.6,0-.8,0Z"/>
            <path class="cls-5" d="M66.3,21.4c-.6,0-1.1-.1-1.6-.4-.5-.2-.8-.6-1.1-1-.3-.4-.5-.8-.6-1.2l.9-1.1c0,.2.2.4.4.6.2.2.4.4.7.5.3.1.6.2.9.2s.8-.1,1-.4c.2-.2.4-.6.4-.9s-.2-.9-.6-1.2c-.4-.4-1-.5-1.9-.5l-.4-1.7h1.1c.5-.2.8-.3,1-.5.2-.2.3-.5.3-.8s-.1-.7-.4-.9c-.2-.2-.5-.3-.8-.3s-.5,0-.8.2c-.2.1-.4.3-.5.5l-1-.7c.3-.4.6-.7,1-.9.4-.2.9-.3,1.4-.3s1,.1,1.5.4c.4.2.8.6,1.1,1,.3.4.4.9.4,1.5,0,.5,0,.9-.2,1.3s-.4.7-.6.9c.5.3.8.6,1.1,1.1.3.5.4,1,.4,1.5,0,.9-.3,1.7-.9,2.3-.6.6-1.4.8-2.4.8Z"/>
            <path class="cls-1" d="M77.5,16.5l.3,4.9-2.4-.4v-.4c-.2.2-.5.3-.8.4-.3.1-.6.2-1,.2s-.9,0-1.4-.3c-.4-.2-.8-.5-1.1-.9-.3-.4-.4-.8-.4-1.4s.2-1,.5-1.4c.3-.4.7-.7,1.1-.8.5-.2.9-.3,1.4-.3s.6,0,.9.2c.3,0,.6.2.8.4,0-.5-.3-.9-.7-1.2s-.8-.4-1.2-.4c-.5,0-1,.2-1.4.6l-.8-.7c.3-.4.8-.7,1.3-.9.5-.2,1.1-.3,1.6-.3.6,0,1.2.1,1.6.3.5.2.9.5,1.1,1,.3.4.5.9.5,1.5ZM74.2,20c.3,0,.6-.1.9-.3.3-.2.4-.5.4-.8s-.1-.6-.4-.8c-.3-.2-.6-.3-.9-.3s-.7.1-.9.3c-.3.2-.4.5-.4.8s.1.6.4.8c.3.2.6.3.9.3Z"/>
            <path class="cls-1" d="M90.9,16.4l.4,5.2-2.4-.3v-4.4c0-.5,0-.8,0-1.1-.1-.3-.3-.4-.5-.5-.2-.1-.4-.2-.6-.2-.5,0-.9.2-1.2.5-.3.4-.4.8-.4,1.3l.2,4.1-2.4.3.2-4c0-.3,0-.5,0-.8,0-.3-.2-.5-.3-.7-.2-.2-.4-.3-.8-.3s-.5,0-.8.2c-.2.2-.4.3-.5.6-.1.2-.2.5-.2.8v3.8c0,0-2.2.7-2.2.7v-8.1s2.1.3,2.1.3v1.1c.3-.3.6-.5.9-.7.3-.2.7-.3,1.1-.3s1,.1,1.4.3c.4.2.7.5,1,1,.2-.5.5-.9,1-1.2.4-.3.9-.4,1.4-.4.8,0,1.4.2,1.9.7.5.5.8,1.2.9,2.1Z"/>
            <path class="cls-1" d="M93.8,13c-.3,0-.6-.1-.8-.3-.2-.2-.3-.5-.3-.8s.1-.6.3-.8c.2-.2.5-.3.8-.3s.6.1.8.3c.2.2.3.5.3.8s-.1.6-.3.8c-.2.2-.5.3-.8.3ZM95,20.9l-2.4.6.2-7.7,2-.3.2,7.4Z"/>
          </g>
        </g>
      </g>
    </g>
  </g>
</svg>